<svg width="15" height="15" viewBox="0 0 15 15" fill="none" xmlns="http://www.w3.org/2000/svg">
<path d="M11.8751 11.4062C11.9938 11.4062 12.1126 11.3624 12.2063 11.2687C12.3876 11.0874 12.3876 10.7874 12.2063 10.6062L3.45635 1.85615C3.2751 1.6749 2.9751 1.6749 2.79385 1.85615C2.6126 2.0374 2.6126 2.3374 2.79385 2.51865L11.5438 11.2687C11.6376 11.3624 11.7563 11.4062 11.8751 11.4062Z" fill="white"/>
<path d="M5.45625 11.4061H11.875C12.1312 11.4061 12.3438 11.1936 12.3438 10.9373V4.51855C12.3438 4.2623 12.1312 4.0498 11.875 4.0498C11.6187 4.0498 11.4062 4.2623 11.4062 4.51855V10.4686H5.45625C5.2 10.4686 4.9875 10.6811 4.9875 10.9373C4.9875 11.1936 5.2 11.4061 5.45625 11.4061Z" fill="white"/>
<path d="M2.1875 14.2188H12.8125C13.0687 14.2188 13.2812 14.0062 13.2812 13.75C13.2812 13.4938 13.0687 13.2812 12.8125 13.2812H2.1875C1.93125 13.2812 1.71875 13.4938 1.71875 13.75C1.71875 14.0062 1.93125 14.2188 2.1875 14.2188Z" fill="white"/>
</svg>
