<svg width="14" height="14" viewBox="0 0 14 14" fill="none" xmlns="http://www.w3.org/2000/svg">
<path d="M12.9792 5.09834V8.90168C12.9792 11.7658 11.7542 12.9908 8.88999 12.9908H8.81416C6.22416 12.9908 4.97583 11.97 4.75999 9.68334C4.74249 9.45001 4.91749 9.22834 5.15666 9.20501C5.39583 9.18168 5.61166 9.35668 5.63499 9.60168C5.80416 11.4333 6.66749 12.1158 8.81999 12.1158H8.89583C11.27 12.1158 12.11 11.2758 12.11 8.90168V5.09834C12.11 2.72418 11.27 1.88418 8.89583 1.88418H8.81999C6.65583 1.88418 5.79249 2.57834 5.63499 4.44501C5.61166 4.68418 5.40166 4.86501 5.16249 4.84168C4.92333 4.81834 4.74249 4.61418 4.76583 4.36918C4.96416 2.04751 6.21833 1.00918 8.82583 1.00918H8.90166C11.7542 1.00918 12.9792 2.23418 12.9792 5.09834Z" fill="white"/>
<path d="M9.18765 7C9.18765 7.23917 8.98932 7.4375 8.75015 7.4375H2.11182C1.87265 7.4375 1.67432 7.23917 1.67432 7C1.67432 6.76083 1.87265 6.5625 2.11182 6.5625H8.75015C8.98932 6.5625 9.18765 6.76083 9.18765 7Z" fill="white"/>
<path d="M3.85017 5.04582C3.85017 5.15666 3.80934 5.26749 3.72184 5.35499L2.07684 6.99999L3.72184 8.64499C3.891 8.81416 3.891 9.09416 3.72184 9.26332C3.55267 9.43249 3.27267 9.43249 3.1035 9.26332L1.14934 7.30916C0.980169 7.13999 0.980169 6.85999 1.14934 6.69082L3.1035 4.73666C3.27267 4.56749 3.55267 4.56749 3.72184 4.73666C3.80934 4.81832 3.85017 4.93499 3.85017 5.04582Z" fill="white"/>
</svg>
