<svg width="64" height="64" viewBox="0 0 64 64" fill="none" xmlns="http://www.w3.org/2000/svg">
<path d="M49 0H15C6.71573 0 0 6.71573 0 15V49C0 57.2843 6.71573 64 15 64H49C57.2843 64 64 57.2843 64 49V15C64 6.71573 57.2843 0 49 0Z" fill="#120C26"/>
<mask id="mask0_16448_251" style="mask-type:alpha" maskUnits="userSpaceOnUse" x="15" y="12" width="35" height="43">
<path d="M50 12H15V55H50V12Z" fill="white"/>
<path fill-rule="evenodd" clip-rule="evenodd" d="M17 37.2324H29.3972C30.4914 37.2324 31.5355 37.1935 32.5297 37.1158C32.3697 37.7421 32.4727 38.4427 32.9274 39.038L42.9031 52.096C43.3383 52.6657 44.0143 53 44.7313 53C46.6416 53 47.7198 50.8064 46.5527 49.2939L36.6808 36.4998C37.5575 36.2973 38.3802 36.0527 39.1489 35.7661C41.7709 34.7886 43.7463 33.4302 45.0753 31.6909C46.4222 29.9517 47.0957 27.9458 47.0957 25.6733C47.0957 23.4009 46.4222 21.3887 45.0753 19.6367C43.7463 17.8721 41.7619 16.4946 39.1219 15.5044C36.4999 14.5015 33.2314 14 29.3164 14H17V17.1992H29.1817C32.0911 17.1992 34.4975 17.5483 36.4012 18.2466C38.3228 18.9448 39.7595 19.9351 40.7113 21.2173C41.6631 22.4868 42.139 23.9722 42.139 25.6733C42.139 27.3745 41.6631 28.8472 40.7113 30.0913C39.7774 31.3354 38.3497 32.2939 36.4281 32.9668C34.5245 33.6396 32.136 33.9761 29.2625 33.9761H17V37.2324Z" fill="black"/>
</mask>
<g mask="url(#mask0_16448_251)">
<path fill-rule="evenodd" clip-rule="evenodd" d="M17 37.2324H29.3972C30.4914 37.2324 31.5355 37.1935 32.5297 37.1158C32.3697 37.7421 32.4727 38.4427 32.9274 39.038L42.9031 52.096C43.3383 52.6657 44.0143 53 44.7313 53C46.6416 53 47.7198 50.8064 46.5527 49.2939L36.6808 36.4998C37.5575 36.2973 38.3802 36.0527 39.1489 35.7661C41.7709 34.7886 43.7463 33.4302 45.0753 31.6909C46.4222 29.9517 47.0957 27.9458 47.0957 25.6733C47.0957 23.4009 46.4222 21.3887 45.0753 19.6367C43.7463 17.8721 41.7619 16.4946 39.1219 15.5044C36.4999 14.5015 33.2314 14 29.3164 14H17V17.1992H29.1817C32.0911 17.1992 34.4975 17.5483 36.4012 18.2466C38.3228 18.9448 39.7595 19.9351 40.7113 21.2173C41.6631 22.4868 42.139 23.9722 42.139 25.6733C42.139 27.3745 41.6631 28.8472 40.7113 30.0913C39.7774 31.3354 38.3497 32.2939 36.4281 32.9668C34.5245 33.6396 32.136 33.9761 29.2625 33.9761H17V37.2324Z" fill="white"/>
<path d="M17 37.2324H15V39.2324H17V37.2324ZM32.5297 37.1158L34.4674 37.6108L35.1589 34.904L32.3737 35.1219L32.5297 37.1158ZM32.9274 39.038L34.5167 37.8238L32.9274 39.038ZM42.9031 52.096L41.3138 53.3101L42.9031 52.096ZM46.5527 49.2939L44.9693 50.5157L46.5527 49.2939ZM36.6808 36.4998L36.2305 34.5512L33.1926 35.2531L35.0973 37.7216L36.6808 36.4998ZM39.1489 35.7661L38.4502 33.8921L39.1489 35.7661ZM45.0753 31.6909L43.494 30.4663L43.4861 30.4766L45.0753 31.6909ZM45.0753 19.6367L43.4777 20.8399L43.4836 20.8478L43.4897 20.8557L45.0753 19.6367ZM39.1219 15.5044L38.4074 17.3724L38.4195 17.377L39.1219 15.5044ZM17 14V12H15V14H17ZM17 17.1992H15V19.1992H17V17.1992ZM36.4012 18.2466L35.7124 20.1243L35.7181 20.1263L36.4012 18.2466ZM40.7113 21.2173L39.1054 22.4094L39.1111 22.417L40.7113 21.2173ZM40.7113 30.0913L39.1228 28.8761L39.1173 28.8834L39.1118 28.8907L40.7113 30.0913ZM36.4281 32.9668L35.7671 31.0792L35.7616 31.0811L36.4281 32.9668ZM17 33.9761V31.9761H15V33.9761H17ZM29.3972 35.2324H17V39.2324H29.3972V35.2324ZM32.3737 35.1219C31.4361 35.1952 30.4443 35.2324 29.3972 35.2324V39.2324C30.5385 39.2324 31.6349 39.1919 32.6857 39.1097L32.3737 35.1219ZM34.5167 37.8238C34.4785 37.7738 34.4671 37.7373 34.4625 37.7134C34.4573 37.6859 34.4571 37.6513 34.4674 37.6108L30.5919 36.6208C30.2897 37.8038 30.4897 39.1415 31.3381 40.2521L34.5167 37.8238ZM44.4924 50.8819L34.5167 37.8238L31.3381 40.2521L41.3138 53.3101L44.4924 50.8819ZM44.7313 51C44.6376 51 44.5493 50.9563 44.4924 50.8819L41.3138 53.3101C42.1274 54.3752 43.391 55 44.7313 55V51ZM44.9693 50.5157C45.0204 50.5819 45.0324 50.6318 45.0354 50.6693C45.039 50.715 45.0302 50.7728 45.0011 50.832C44.972 50.8911 44.9317 50.9334 44.8932 50.9585C44.8617 50.979 44.8149 51 44.7313 51V55C48.3024 55 50.3177 50.8994 48.1362 48.0721L44.9693 50.5157ZM35.0973 37.7216L44.9693 50.5157L48.1362 48.0722L38.2642 35.2781L35.0973 37.7216ZM38.4502 33.8921C37.77 34.1457 37.0309 34.3662 36.2305 34.5512L37.131 38.4485C38.0841 38.2283 38.9904 37.9597 39.8475 37.6401L38.4502 33.8921ZM43.4861 30.4766C42.4416 31.8436 40.8163 33.01 38.4502 33.8921L39.8475 37.6401C42.7254 36.5672 45.051 35.0168 46.6645 32.9052L43.4861 30.4766ZM45.0957 25.6733C45.0957 27.5183 44.56 29.0899 43.494 30.4663L46.6566 32.9155C48.2844 30.8134 49.0957 28.3733 49.0957 25.6733H45.0957ZM43.4897 20.8557C44.5598 22.2476 45.0957 23.8283 45.0957 25.6733H49.0957C49.0957 22.9734 48.2846 20.5297 46.6609 18.4177L43.4897 20.8557ZM38.4195 17.377C40.8009 18.2702 42.4328 19.4525 43.4777 20.8399L46.6729 18.4336C45.0598 16.2916 42.7229 14.719 39.8243 13.6318L38.4195 17.377ZM29.3164 16C33.0765 16 36.0843 16.4838 38.4074 17.3724L39.8365 13.6364C36.9156 12.5192 33.3864 12 29.3164 12V16ZM17 16H29.3164V12H17V16ZM19 17.1992V14H15V17.1992H19ZM29.1817 15.1992H17V19.1992H29.1817V15.1992ZM37.0899 16.3689C34.8922 15.5628 32.2325 15.1992 29.1817 15.1992V19.1992C31.9496 19.1992 34.1028 19.5339 35.7124 20.1243L37.0899 16.3689ZM42.3172 20.0252C41.0743 18.3508 39.2716 17.1617 37.0842 16.3668L35.7181 20.1263C37.3739 20.728 38.4447 21.5193 39.1054 22.4094L42.3172 20.0252ZM44.139 25.6733C44.139 23.5727 43.542 21.6589 42.3115 20.0176L39.1111 22.417C39.7842 23.3148 40.139 24.3716 40.139 25.6733H44.139ZM42.2997 31.3065C43.5419 29.6829 44.139 27.7737 44.139 25.6733H40.139C40.139 26.9753 39.7843 28.0114 39.1228 28.8761L42.2997 31.3065ZM37.0891 34.8544C39.2707 34.0905 41.0757 32.9375 42.3108 31.2919L39.1118 28.8907C38.4792 29.7334 37.4287 30.4974 35.7671 31.0792L37.0891 34.8544ZM29.2625 35.9761C32.2749 35.9761 34.9072 35.6256 37.0946 34.8525L35.7616 31.0811C34.1417 31.6537 31.997 31.9761 29.2625 31.9761V35.9761ZM17 35.9761H29.2625V31.9761H17V35.9761ZM19 37.2324V33.9761H15V37.2324H19Z" fill="white"/>
</g>
</svg>
