<svg width="20" height="20" viewBox="0 0 20 20" fill="none" xmlns="http://www.w3.org/2000/svg">
<path d="M8.11742 15.9867H0.883301" stroke="white" stroke-width="1.5" stroke-linecap="round" stroke-linejoin="round"/>
<path fill-rule="evenodd" clip-rule="evenodd" d="M19.1179 15.9864C19.1179 17.577 17.8285 18.8664 16.2379 18.8664C14.6473 18.8664 13.3579 17.577 13.3579 15.9864C13.3579 14.3947 14.6473 13.1064 16.2379 13.1064C17.8285 13.1064 19.1179 14.3947 19.1179 15.9864Z" stroke="white" stroke-width="1.5" stroke-linecap="round" stroke-linejoin="round"/>
<path d="M11.8828 4.26206H19.1181" stroke="white" stroke-width="1.5" stroke-linecap="round" stroke-linejoin="round"/>
<path fill-rule="evenodd" clip-rule="evenodd" d="M0.882812 4.26208C0.882812 5.85384 2.17222 7.14208 3.76281 7.14208C5.3534 7.14208 6.64281 5.85384 6.64281 4.26208C6.64281 2.67149 5.3534 1.38208 3.76281 1.38208C2.17222 1.38208 0.882812 2.67149 0.882812 4.26208Z" stroke="white" stroke-width="1.5" stroke-linecap="round" stroke-linejoin="round"/>
</svg>
