<svg width="14" height="14" viewBox="0 0 14 14" fill="none" xmlns="http://www.w3.org/2000/svg">
<path d="M7.00016 7.43749C5.151 7.43749 3.646 5.93249 3.646 4.08332C3.646 2.23416 5.151 0.729156 7.00016 0.729156C8.84933 0.729156 10.3543 2.23416 10.3543 4.08332C10.3543 5.93249 8.84933 7.43749 7.00016 7.43749ZM7.00016 1.60416C5.63516 1.60416 4.521 2.71832 4.521 4.08332C4.521 5.44832 5.63516 6.56249 7.00016 6.56249C8.36516 6.56249 9.47933 5.44832 9.47933 4.08332C9.47933 2.71832 8.36516 1.60416 7.00016 1.60416Z" fill="white"/>
<path d="M12.0109 13.2708C11.7718 13.2708 11.5734 13.0725 11.5734 12.8333C11.5734 10.8208 9.52009 9.1875 7.00009 9.1875C4.48009 9.1875 2.42676 10.8208 2.42676 12.8333C2.42676 13.0725 2.22842 13.2708 1.98926 13.2708C1.75009 13.2708 1.55176 13.0725 1.55176 12.8333C1.55176 10.3425 3.99592 8.3125 7.00009 8.3125C10.0043 8.3125 12.4484 10.3425 12.4484 12.8333C12.4484 13.0725 12.2501 13.2708 12.0109 13.2708Z" fill="white"/>
</svg>
