<svg width="96" height="24" viewBox="0 0 96 24" fill="none" xmlns="http://www.w3.org/2000/svg">
<path d="M24 23.7338V4.26616H33.5875C35.0246 4.26616 36.2274 4.47212 37.1958 4.88403C38.1705 5.29594 38.9016 5.87262 39.3889 6.61407C39.8826 7.35551 40.1294 8.2142 40.1294 9.19011C40.1294 9.93156 39.9763 10.5938 39.6701 11.1768C39.364 11.7535 38.9422 12.2319 38.4049 12.6122C37.8675 12.9924 37.2458 13.2586 36.5398 13.4106V13.6008C37.3145 13.6388 38.03 13.8511 38.686 14.2376C39.3483 14.6242 39.8794 15.1629 40.2793 15.8536C40.6792 16.538 40.8791 17.3492 40.8791 18.2871C40.8791 19.3327 40.6167 20.2674 40.0919 21.0913C39.567 21.9087 38.8079 22.5551 37.8144 23.0304C36.8209 23.4994 35.615 23.7338 34.1967 23.7338H24ZM28.6393 19.9411H33.0908C34.0967 19.9411 34.8371 19.7478 35.312 19.3612C35.7931 18.9747 36.0337 18.436 36.0337 17.7452C36.0337 17.2446 35.9181 16.8137 35.6869 16.4525C35.4557 16.0849 35.1277 15.8029 34.7028 15.6065C34.2779 15.4037 33.7687 15.3023 33.1751 15.3023H28.6393V19.9411ZM28.6393 12.27H32.7908C33.297 12.27 33.7468 12.1844 34.1405 12.0133C34.5341 11.8422 34.8403 11.5951 35.0589 11.2719C35.2839 10.9487 35.3963 10.5589 35.3963 10.1027C35.3963 9.44994 35.1683 8.93663 34.7122 8.56274C34.256 8.18885 33.6406 8.0019 32.8658 8.0019H28.6393V12.27Z" fill="white"/>
<path d="M61.2264 14C61.2264 16.142 60.8203 17.9575 60.008 19.4468C59.1957 20.936 58.0961 22.0672 56.709 22.8403C55.3281 23.6134 53.7786 24 52.0603 24C50.3358 24 48.7831 23.6103 47.4023 22.8308C46.0214 22.0513 44.9249 20.9202 44.1126 19.4373C43.3066 17.948 42.9036 16.1356 42.9036 14C42.9036 11.858 43.3066 10.0425 44.1126 8.55323C44.9249 7.064 46.0214 5.93283 47.4023 5.1597C48.7831 4.38657 50.3358 4 52.0603 4C53.7786 4 55.3281 4.38657 56.709 5.1597C58.0961 5.93283 59.1957 7.064 60.008 8.55323C60.8203 10.0425 61.2264 11.858 61.2264 14ZM56.484 14C56.484 12.7326 56.306 11.6616 55.9498 10.7871C55.5999 9.91255 55.0938 9.25032 54.4315 8.80038C53.7754 8.35044 52.985 8.12547 52.0603 8.12547C51.1418 8.12547 50.3514 8.35044 49.6891 8.80038C49.0268 9.25032 48.5176 9.91255 48.1614 10.7871C47.8115 11.6616 47.6366 12.7326 47.6366 14C47.6366 15.2674 47.8115 16.3384 48.1614 17.2129C48.5176 18.0875 49.0268 18.7497 49.6891 19.1996C50.3514 19.6496 51.1418 19.8745 52.0603 19.8745C52.985 19.8745 53.7754 19.6496 54.4315 19.1996C55.0938 18.7497 55.5999 18.0875 55.9498 17.2129C56.306 16.3384 56.484 15.2674 56.484 14Z" fill="white"/>
<path d="M62.4308 8.08745V4.26616H78.6542V8.08745H72.834V23.7338H68.2603V8.08745H62.4308Z" fill="white"/>
<path d="M91.2951 10.1027C91.2326 9.40558 90.9546 8.86375 90.461 8.47719C89.9736 8.08428 89.2769 7.88783 88.3709 7.88783C87.7711 7.88783 87.2713 7.96705 86.8714 8.12547C86.4715 8.2839 86.1716 8.50254 85.9716 8.78137C85.7717 9.05387 85.6686 9.36755 85.6623 9.72243C85.6499 10.0139 85.7061 10.2706 85.831 10.4924C85.9623 10.7142 86.1497 10.9106 86.3934 11.0817C86.6433 11.2465 86.9432 11.3923 87.2931 11.519C87.643 11.6458 88.0367 11.7567 88.474 11.8517L90.1236 12.2319C91.0733 12.4411 91.9106 12.7199 92.6353 13.0684C93.3664 13.417 93.9787 13.8321 94.4723 14.3137C94.9722 14.7953 95.3502 15.3498 95.6064 15.9772C95.8625 16.6046 95.9938 17.308 96 18.0875C95.9938 19.3169 95.6876 20.372 95.0815 21.2529C94.4754 22.1337 93.6038 22.8086 92.4666 23.2776C91.3357 23.7465 89.9705 23.981 88.3709 23.981C86.7652 23.981 85.3656 23.737 84.1721 23.249C82.9787 22.7611 82.0509 22.0196 81.3886 21.0247C80.7263 20.0298 80.3857 18.7719 80.367 17.251H84.8095C84.847 17.8783 85.0125 18.4011 85.3062 18.8194C85.5999 19.2376 86.0029 19.5545 86.5152 19.77C87.0338 19.9854 87.6337 20.0932 88.3147 20.0932C88.9395 20.0932 89.4706 20.0076 89.908 19.8365C90.3516 19.6654 90.6921 19.4278 90.9296 19.1236C91.167 18.8194 91.2888 18.4708 91.2951 18.0779C91.2888 17.7104 91.1764 17.3967 90.9577 17.1369C90.739 16.8707 90.4016 16.6426 89.9455 16.4525C89.4956 16.256 88.9208 16.0754 88.221 15.9106L86.2153 15.4354C84.5533 15.0488 83.2443 14.4246 82.2883 13.5627C81.3323 12.6945 80.8575 11.5222 80.8637 10.0456C80.8575 8.84157 81.1761 7.78644 81.8197 6.88023C82.4633 5.97402 83.3536 5.26743 84.4908 4.76046C85.628 4.25349 86.9245 4 88.3803 4C89.8674 4 91.1576 4.25665 92.2511 4.76996C93.3508 5.27693 94.2036 5.98986 94.8097 6.90875C95.4158 7.82763 95.7251 8.89227 95.7376 10.1027H91.2951Z" fill="white"/>
<mask id="mask0_207_43" style="mask-type:alpha" maskUnits="userSpaceOnUse" x="0" y="0" width="20" height="24">
<path d="M19.5349 0H0V24H19.5349V0Z" fill="white"/>
<path fill-rule="evenodd" clip-rule="evenodd" d="M1.11621 14.0832H8.03558C8.64629 14.0832 9.22905 14.0615 9.78395 14.0181C9.69465 14.3677 9.75214 14.7587 10.0059 15.091L15.5738 22.3792C15.8167 22.6971 16.194 22.8837 16.5941 22.8837C17.6604 22.8837 18.2621 21.6594 17.6107 20.8152L12.1008 13.6743C12.5902 13.5613 13.0493 13.4248 13.4784 13.2648C14.9418 12.7192 16.0444 11.961 16.7861 10.9903C17.5379 10.0195 17.9138 8.89997 17.9138 7.6316C17.9138 6.36329 17.5379 5.2402 16.7861 4.26234C16.0444 3.27744 14.9368 2.50861 13.4633 1.95594C11.9999 1.39618 10.1756 1.11627 7.99048 1.11627H1.11621V2.90187H7.9153C9.53915 2.90187 10.8823 3.09672 11.9448 3.48647C13.0173 3.87616 13.8192 4.42889 14.3504 5.14453C14.8817 5.85309 15.1473 6.68215 15.1473 7.6316C15.1473 8.58111 14.8817 9.40308 14.3504 10.0975C13.8292 10.7918 13.0323 11.3268 11.9598 11.7024C10.8973 12.0779 9.56421 12.2657 7.9604 12.2657H1.11621V14.0832Z" fill="black"/>
</mask>
<g mask="url(#mask0_207_43)">
<path fill-rule="evenodd" clip-rule="evenodd" d="M1.11621 14.0832H8.03558C8.64629 14.0832 9.22905 14.0615 9.78395 14.0181C9.69465 14.3677 9.75214 14.7587 10.0059 15.091L15.5738 22.3792C15.8167 22.6971 16.194 22.8837 16.5941 22.8837C17.6604 22.8837 18.2621 21.6594 17.6107 20.8152L12.1008 13.6743C12.5902 13.5613 13.0493 13.4248 13.4784 13.2648C14.9418 12.7192 16.0444 11.961 16.7861 10.9903C17.5379 10.0195 17.9138 8.89997 17.9138 7.6316C17.9138 6.36329 17.5379 5.2402 16.7861 4.26234C16.0444 3.27744 14.9368 2.50861 13.4633 1.95594C11.9999 1.39618 10.1756 1.11627 7.99048 1.11627H1.11621V2.90187H7.9153C9.53915 2.90187 10.8823 3.09672 11.9448 3.48647C13.0173 3.87616 13.8192 4.42889 14.3504 5.14453C14.8817 5.85309 15.1473 6.68215 15.1473 7.6316C15.1473 8.58111 14.8817 9.40308 14.3504 10.0975C13.8292 10.7918 13.0323 11.3268 11.9598 11.7024C10.8973 12.0779 9.56421 12.2657 7.9604 12.2657H1.11621V14.0832Z" fill="#5A2BBD"/>
<path d="M1.11628 14.0832H0V15.1995H1.11628V14.0832ZM9.78402 14.0181L10.8655 14.2944L11.2515 12.7836L9.69695 12.9052L9.78402 14.0181ZM10.006 15.091L10.893 14.4133L10.006 15.091ZM15.5738 22.3792L14.6868 23.0568L15.5738 22.3792ZM17.6108 20.8152L16.727 21.4971L17.6108 20.8152ZM12.1009 13.6743L11.8496 12.5867L10.154 12.9785L11.2171 14.3562L12.1009 13.6743ZM13.4785 13.2648L13.0885 12.2188L13.4785 13.2648ZM16.7862 10.9903L15.9036 10.3068L15.8992 10.3125L16.7862 10.9903ZM16.7862 4.26234L15.8945 4.9339L15.8978 4.93831L15.9012 4.94272L16.7862 4.26234ZM13.4634 1.95594L13.0646 2.99855L13.0713 3.00112L13.4634 1.95594ZM1.11628 1.11628V0H0V1.11628H1.11628ZM1.11628 2.90188H0V4.01816H1.11628V2.90188ZM11.9449 3.48647L11.5604 4.53449L11.5636 4.53561L11.9449 3.48647ZM14.3505 5.14454L13.4542 5.8099L13.4574 5.81414L14.3505 5.14454ZM14.3505 10.0975L13.4639 9.41922L13.4608 9.42329L13.4577 9.42737L14.3505 10.0975ZM11.9599 11.7024L11.5909 10.6489L11.5879 10.6499L11.9599 11.7024ZM1.11628 12.2657V11.1495H0V12.2657H1.11628ZM8.03565 12.9669H1.11628V15.1995H8.03565V12.9669ZM9.69695 12.9052C9.17364 12.9462 8.62007 12.9669 8.03565 12.9669V15.1995C8.67265 15.1995 9.28459 15.1769 9.87109 15.131L9.69695 12.9052ZM10.893 14.4133C10.8717 14.3854 10.8654 14.365 10.8628 14.3517C10.8599 14.3363 10.8598 14.317 10.8655 14.2944L8.70246 13.7418C8.53379 14.4021 8.64541 15.1487 9.11894 15.7686L10.893 14.4133ZM16.4609 21.7015L10.893 14.4133L9.11894 15.7686L14.6868 23.0568L16.4609 21.7015ZM16.5942 21.7674C16.5419 21.7674 16.4926 21.7431 16.4609 21.7015L14.6868 23.0568C15.1409 23.6513 15.8461 24 16.5942 24V21.7674ZM16.727 21.4971C16.7556 21.5341 16.7623 21.5619 16.7639 21.5829C16.766 21.6084 16.761 21.6406 16.7448 21.6737C16.7286 21.7067 16.7061 21.7303 16.6846 21.7443C16.667 21.7557 16.6409 21.7674 16.5942 21.7674V24C18.5874 24 19.7122 21.7113 18.4946 20.1333L16.727 21.4971ZM11.2171 14.3562L16.727 21.4971L18.4946 20.1333L12.9847 12.9924L11.2171 14.3562ZM13.0885 12.2188C12.7088 12.3604 12.2963 12.4835 11.8496 12.5867L12.3522 14.762C12.8841 14.6391 13.39 14.4891 13.8684 14.3108L13.0885 12.2188ZM15.8992 10.3125C15.3162 11.0755 14.4091 11.7265 13.0885 12.2188L13.8684 14.3108C15.4746 13.7119 16.7727 12.8466 17.6732 11.668L15.8992 10.3125ZM16.7976 7.63161C16.7976 8.66138 16.4986 9.53855 15.9036 10.3068L17.6688 11.6738C18.5773 10.5005 19.0302 9.13859 19.0302 7.63161H16.7976ZM15.9012 4.94272C16.4985 5.71959 16.7976 6.60184 16.7976 7.63161H19.0302C19.0302 6.12469 18.5775 4.76076 17.6712 3.58197L15.9012 4.94272ZM13.0713 3.00112C14.4005 3.49965 15.3113 4.15953 15.8945 4.9339L17.6779 3.59085C16.7776 2.39531 15.4732 1.51758 13.8554 0.910772L13.0713 3.00112ZM7.99055 2.23256C10.0892 2.23256 11.768 2.50259 13.0646 2.99855L13.8622 0.91334C12.232 0.289786 10.2622 0 7.99055 0V2.23256ZM1.11628 2.23256H7.99055V0H1.11628V2.23256ZM2.23256 2.90188V1.11628H0V2.90188H2.23256ZM7.91537 1.7856H1.11628V4.01816H7.91537V1.7856ZM12.3292 2.43846C11.1026 1.98854 9.61814 1.7856 7.91537 1.7856V4.01816C9.46024 4.01816 10.662 4.20497 11.5604 4.53449L12.3292 2.43846ZM15.2468 4.47918C14.5531 3.54463 13.5469 2.88095 12.3261 2.43728L11.5636 4.53561C12.4878 4.87144 13.0854 5.3131 13.4542 5.8099L15.2468 4.47918ZM16.2636 7.63161C16.2636 6.45918 15.9304 5.39101 15.2436 4.47494L13.4574 5.81414C13.833 6.31524 14.0311 6.90508 14.0311 7.63161H16.2636ZM15.237 10.7757C15.9304 9.86953 16.2636 8.80393 16.2636 7.63161H14.0311C14.0311 8.35831 13.8331 8.9366 13.4639 9.41922L15.237 10.7757ZM12.3288 12.7559C13.5464 12.3296 14.5539 11.686 15.2432 10.7676L13.4577 9.42737C13.1047 9.89771 12.5183 10.3241 11.5909 10.6489L12.3288 12.7559ZM7.96047 13.382C9.6418 13.382 11.111 13.1864 12.3319 12.7549L11.5879 10.6499C10.6837 10.9695 9.4867 11.1495 7.96047 11.1495V13.382ZM1.11628 13.382H7.96047V11.1495H1.11628V13.382ZM2.23256 14.0832V12.2657H0V14.0832H2.23256Z" fill="#5A2BBD"/>
</g>
</svg>
