<svg width="14" height="14" viewBox="0 0 14 14" fill="none" xmlns="http://www.w3.org/2000/svg">
<path d="M7 9.1875C5.7925 9.1875 4.8125 8.2075 4.8125 7C4.8125 5.7925 5.7925 4.8125 7 4.8125C8.2075 4.8125 9.1875 5.7925 9.1875 7C9.1875 8.2075 8.2075 9.1875 7 9.1875ZM7 5.6875C6.27667 5.6875 5.6875 6.27667 5.6875 7C5.6875 7.72333 6.27667 8.3125 7 8.3125C7.72333 8.3125 8.3125 7.72333 8.3125 7C8.3125 6.27667 7.72333 5.6875 7 5.6875Z" fill="white"/>
<path d="M8.87234 12.9442C8.74984 12.9442 8.62734 12.9267 8.50484 12.8975C8.14317 12.7983 7.83984 12.5708 7.64734 12.25L7.57734 12.1333C7.23317 11.5383 6.76067 11.5383 6.4165 12.1333L6.35234 12.2442C6.15984 12.5708 5.8565 12.8042 5.49484 12.8975C5.12734 12.9967 4.74817 12.9442 4.42734 12.7517L3.424 12.1742C3.06817 11.97 2.8115 11.6375 2.70067 11.235C2.59567 10.8325 2.64817 10.4183 2.85234 10.0625C3.0215 9.76501 3.06817 9.49667 2.969 9.3275C2.86984 9.15834 2.619 9.05917 2.27484 9.05917C1.42317 9.05917 0.729004 8.365 0.729004 7.51334V6.48667C0.729004 5.635 1.42317 4.94084 2.27484 4.94084C2.619 4.94084 2.86984 4.84167 2.969 4.6725C3.06817 4.50334 3.02734 4.235 2.85234 3.9375C2.64817 3.58167 2.59567 3.16167 2.70067 2.765C2.80567 2.3625 3.06234 2.03 3.424 1.82584L4.43317 1.24834C5.09234 0.857504 5.9615 1.085 6.35817 1.75584L6.42817 1.8725C6.77234 2.4675 7.24484 2.4675 7.589 1.8725L7.65317 1.76167C8.04984 1.085 8.919 0.857504 9.584 1.25417L10.5873 1.83167C10.9432 2.03584 11.1998 2.36834 11.3107 2.77084C11.4157 3.17334 11.3632 3.5875 11.159 3.94334C10.9898 4.24084 10.9432 4.50917 11.0423 4.67834C11.1415 4.8475 11.3923 4.94667 11.7365 4.94667C12.5882 4.94667 13.2823 5.64084 13.2823 6.4925V7.51917C13.2823 8.37084 12.5882 9.065 11.7365 9.065C11.3923 9.065 11.1415 9.16417 11.0423 9.33334C10.9432 9.5025 10.984 9.77084 11.159 10.0683C11.3632 10.4242 11.4215 10.8442 11.3107 11.2408C11.2057 11.6433 10.949 11.9758 10.5873 12.18L9.57817 12.7575C9.3565 12.88 9.11734 12.9442 8.87234 12.9442ZM6.99984 10.7858C7.519 10.7858 8.00317 11.1125 8.33567 11.69L8.39984 11.8008C8.46984 11.9233 8.5865 12.0108 8.7265 12.0458C8.8665 12.0808 9.0065 12.0633 9.12317 11.9933L10.1323 11.41C10.284 11.3225 10.4007 11.1767 10.4473 11.0017C10.494 10.8267 10.4707 10.6458 10.3832 10.4942C10.0507 9.9225 10.0098 9.33334 10.2665 8.88417C10.5232 8.435 11.054 8.17834 11.719 8.17834C12.0923 8.17834 12.3898 7.88084 12.3898 7.5075V6.48084C12.3898 6.11334 12.0923 5.81 11.719 5.81C11.054 5.81 10.5232 5.55334 10.2665 5.10417C10.0098 4.655 10.0507 4.06584 10.3832 3.49417C10.4707 3.3425 10.494 3.16167 10.4473 2.98667C10.4007 2.81167 10.2898 2.67167 10.1382 2.57834L9.129 2.00084C8.87817 1.84917 8.54567 1.93667 8.394 2.19334L8.32984 2.30417C7.99734 2.88167 7.51317 3.20834 6.994 3.20834C6.47484 3.20834 5.99067 2.88167 5.65817 2.30417L5.594 2.1875C5.44817 1.9425 5.1215 1.855 4.87067 2.00084L3.8615 2.58417C3.70984 2.67167 3.59317 2.8175 3.5465 2.9925C3.49984 3.1675 3.52317 3.34834 3.61067 3.5C3.94317 4.07167 3.984 4.66084 3.72734 5.11C3.47067 5.55917 2.93984 5.81584 2.27484 5.81584C1.9015 5.81584 1.604 6.11334 1.604 6.48667V7.51334C1.604 7.88084 1.9015 8.18417 2.27484 8.18417C2.93984 8.18417 3.47067 8.44084 3.72734 8.89C3.984 9.33917 3.94317 9.92834 3.61067 10.5C3.52317 10.6517 3.49984 10.8325 3.5465 11.0075C3.59317 11.1825 3.704 11.3225 3.85567 11.4158L4.86484 11.9933C4.98734 12.0692 5.13317 12.0867 5.26734 12.0517C5.40734 12.0167 5.524 11.9233 5.59984 11.8008L5.664 11.69C5.9965 11.1183 6.48067 10.7858 6.99984 10.7858Z" fill="white"/>
</svg>
